# xmcd
#
# Track frame offsets: 
#        182
#        12782
#        26490
#        39542
#        51850
#        63465
#        76912
#        92430
#        109160
#        121695
#        134257
#        146242
#
# Disc length: 2165 seconds
#
# Revision: 2
# Processed by: cddbd v1.4PL0 Copyright (c) Steve Scherf et al.
# Submitted via: ExactAudioCopy v0.90b4
#
DISCID=9708730c
DTITLE=Reba McEntire - You Lift Me Up To Heaven
DYEAR=1900
DGENRE=Country
TTITLE0=You Lift Me Up To Heaven
TTITLE1=I've Waited All My Life For You
TTITLE2=You're The First Time I Thought About Leaving
TTITLE3=One To One
TTITLE4=Ease The Fever
TTITLE5=Glad I Waited Just For You
TTITLE6=Old Man River (I've Come To Talk Again)
TTITLE7=Don't Say Goodnight, Say Good Morning
TTITLE8=I'm Not That Lonely Yet
TTITLE9=Its Gotta Be Love
TTITLE10=Right Time Of The Night
TTITLE11=Why Can't He Be You
EXTD=
EXTT0=
EXTT1=
EXTT2=
EXTT3=
EXTT4=
EXTT5=
EXTT6=
EXTT7=
EXTT8=
EXTT9=
EXTT10=
EXTT11=
PLAYORDER=
